<svg xmlns="http://www.w3.org/2000/svg" viewBox="0 0 841.9 595.3">
  <g fill="#61DAFB">
    <path d="M666.3 296.5c0 48.2-36.4 106.4-90.7 141.7-55.3 36-118.9 33.1-175.4 12.4-59.8-22.1-117.2-63.3-150.7-111.2-39.9-56-44.4-117.9-22.7-172.1 22.2-54.8 68.1-100.2 120.8-123 55.3-24.4 116.4-22.9 168.5 6.4 54.9 30.8 96.9 89.3 116.9 154.4 20.1 65.2 18.7 131.2 22.3 161.8.2 2.7.4 5.4.4 8.1z"/>
    <circle cx="420.9" cy="296.5" r="45.7" fill="#61DAFB"/>
    <path d="M520.5 78.1c-39.8-22.5-91.4-14.3-142.1 19.7-50.6 34-95 89.5-117.4 152.3-22.5 63.1-22 129.2 0 171.3 21.9 41.3 67.6 68.9 123.9 68.9 53.2 0 106.7-23.4 143.4-57.9 37.3-35 60.5-83.1 69.1-133.6 8.3-48.6 1.9-102.1-12.2-150.7-6.3-21.9-14.7-42.6-22.7-56.0-2.2-3.7-4.5-7.1-7.0-10.1z"/>
  </g>
</svg>
